<svg xmlns="http://www.w3.org/2000/svg" width="21" height="24" fill="none"><g clip-path="url(#a)"><path fill="#FDFDFD" d="M6 1.88a1.87 1.87 0 1 1 3.75 0v6.94a2.25 2.25 0 0 1 3.6.9 2.25 2.25 0 0 1 3.9 1.36A2.25 2.25 0 0 1 21 12.75V18a6 6 0 0 1-6 6h-4a9.4 9.4 0 0 1-7.25-3.75l-3.38-4.5a1.87 1.87 0 1 1 3-2.25L6 17V1.87Zm5.25 12.37a.75.75 0 0 0-.75-.75.75.75 0 0 0-.75.75v4.5c0 .41.34.75.75.75s.75-.34.75-.75v-4.5Zm2.25-.75a.75.75 0 0 0-.75.75v4.5c0 .41.34.75.75.75s.75-.34.75-.75v-4.5a.75.75 0 0 0-.75-.75Zm3.75.75a.75.75 0 0 0-.75-.75.75.75 0 0 0-.75.75v4.5c0 .41.34.75.75.75s.75-.34.75-.75v-4.5Z"/></g><defs><clipPath id="a"><path fill="#fff" d="M0 0h21v24H0z"/></clipPath></defs></svg>