<svg xmlns="http://www.w3.org/2000/svg"  viewBox="0 0 137 72" fill="none"><path fill="#fff" d="M4.96 61.5H8.1c.5 0 .74-.03.97-.13a1.43 1.43 0 0 0 0-2.69c-.23-.1-.47-.14-.98-.14H4.96v2.97Zm0 6.5H3.1V56.8h5.24c.87 0 1.44.15 1.92.43.97.52 1.6 1.53 1.6 2.8a3.1 3.1 0 0 1-1.6 2.78c-.5.28-1.05.43-1.92.43H4.96V68Zm13.9-11.2h2.1L24 62.54l2.95-5.74h2.1l-4.31 8.1a9 9 0 0 1-1.38 2.12 3 3 0 0 1-2.22 1c-.66 0-1.31-.2-1.87-.6l.95-1.58c.28.2.61.3.95.3.65 0 1.05-.38 1.56-1.3 0-.03.26-.47.26-.47l-4.12-7.57Zm17.77 0h1l4.86 5.83 4.84-5.83h1.02V68h-1.88v-7.65l-3.98 4.87-4-4.87V68h-1.86V56.8Zm19.7-.01h9.46v1.75H62V68H60.1v-9.46h-3.78v-1.75ZM81.56 68v-7.82L74.78 68h-1.02V56.8h1.88v7.8l6.78-7.8h1.02V68h-1.88Zm19.21-3.33a3.2 3.2 0 0 1-1.65 2.9c-.5.27-1.08.43-1.96.43h-5.13V56.8h7.73v1.74H93.9v2.81h3.26c.88 0 1.47.16 1.95.44a3.2 3.2 0 0 1 1.66 2.88Zm-1.85 0c0-.7-.42-1.2-.98-1.45a2.5 2.5 0 0 0-1-.14H93.9v3.19h3.04c.51 0 .77-.05 1-.15.57-.24.98-.75.98-1.45Zm9.93-7.87h7.65v1.73h-5.77V61h4.47v1.72h-4.47v3.56h5.77V68h-7.65V56.8Zm15.25-.01h9.47v1.75h-3.8V68h-1.88v-9.46h-3.8v-1.75Z"/><mask id="a" width="137" height="48" x="0" y="0" maskUnits="userSpaceOnUse" style="mask-type:luminance"><path fill="#fff" d="M137 0H0v48h137V0Z"/></mask><g mask="url(#a)"><path fill="#FDFDFD" d="M.15 27.91c.25-.05 24.67-5.88 43.05-14.03 2.04-.9 3.7-1.44 5.1-1.7-1.57 1.58-10.76 5.5-3.42 6.2 6.74.64-4.36 8.63-9.45 11.54-13.38 4.24-22.06 5.9-22.22 5.94l.19.98c.04-.01.82-.16 2.23-.47 7.37-1.63 32.13-7.75 60.54-21.72 3.99-1.96 7.24-3.04 9.97-3.45-.8 4.12-10.09 13.22 4.75 15.52 13.53 2.1-13.6 7.42-23.72 10.13-1.46.39-2.56.72-3.14.99-4.46 2.05 47.44.2 70.65.11.75.03 1.53.04 2.32.04v-1c-20.73 0-28.07-9.48-33.97-17.1-6.13-7.9-10.97-14.16-27.3-6.13-3.8 1.86-7.63 3.64-11.5 5.33-3.42-1.22-5.5-2.97-7.31-4.5-3.38-2.87-5.82-4.94-13.99-1.32C24.6 21.4.24 27.21 0 27.27l.15.64Z"/></g></svg>