<svg xmlns="http://www.w3.org/2000/svg" width="32" height="32" fill="none"><path fill="#fff" d="M16 2.67a13.34 13.34 0 1 0 .01 26.67A13.34 13.34 0 0 0 16 2.67Zm6.19 9.06c-.2 2.11-1.07 7.23-1.51 9.59-.19 1-.56 1.33-.9 1.37-.78.07-1.37-.5-2.11-1-1.18-.77-1.84-1.25-2.98-2-1.32-.86-.46-1.34.3-2.12.2-.2 3.61-3.3 3.68-3.58a.27.27 0 0 0-.07-.24c-.08-.07-.19-.04-.28-.03-.12.03-1.99 1.27-5.63 3.72-.53.36-1.01.55-1.44.53a9.3 9.3 0 0 1-2.06-.49c-.84-.27-1.5-.41-1.44-.88.02-.24.36-.48.98-.73 3.9-1.7 6.48-2.82 7.78-3.35 3.7-1.55 4.46-1.81 4.97-1.81.1 0 .36.02.52.16.13.1.17.25.19.36-.02.08.01.32 0 .5Z"/></svg>