<svg xmlns="http://www.w3.org/2000/svg" xmlns:xlink="http://www.w3.org/1999/xlink"><defs>
<clipPath id="clip0_1_196">
<rect width="18" height="18" fill="white"/>
</clipPath>

<clipPath id="clip0_1_35">
<rect width="36" height="36" fill="white" transform="translate(7 7)"/>
</clipPath>

<filter id="filter0_dd_49704_339" x="-4" y="6.12329" width="92" height="43.4465" filterUnits="userSpaceOnUse" color-interpolation-filters="sRGB">
<feFlood flood-opacity="0" result="BackgroundImageFix"/>
<feColorMatrix in="SourceAlpha" type="matrix" values="0 0 0 0 0 0 0 0 0 0 0 0 0 0 0 0 0 0 127 0" result="hardAlpha"/>
<feOffset dy="4"/>
<feGaussianBlur stdDeviation="2"/>
<feComposite in2="hardAlpha" operator="out"/>
<feColorMatrix type="matrix" values="0 0 0 0 0 0 0 0 0 0 0 0 0 0 0 0 0 0 0.25 0"/>
<feBlend mode="normal" in2="BackgroundImageFix" result="effect1_dropShadow_49704_339"/>
<feColorMatrix in="SourceAlpha" type="matrix" values="0 0 0 0 0 0 0 0 0 0 0 0 0 0 0 0 0 0 127 0" result="hardAlpha"/>
<feOffset dy="4"/>
<feGaussianBlur stdDeviation="2"/>
<feComposite in2="hardAlpha" operator="out"/>
<feColorMatrix type="matrix" values="0 0 0 0 0 0 0 0 0 0 0 0 0 0 0 0 0 0 0.25 0"/>
<feBlend mode="normal" in2="effect1_dropShadow_49704_339" result="effect2_dropShadow_49704_339"/>
<feBlend mode="normal" in="SourceGraphic" in2="effect2_dropShadow_49704_339" result="shape"/>
</filter>
</defs><symbol id="arrow" viewBox="0 0 16 9"><g fill="none">
<path d="M14.2475 0.6574L7.99997 6.7474L1.75247 0.6574C1.64085 0.548372 1.49101 0.487334 1.33497 0.487334C1.17894 0.487334 1.0291 0.548372 0.917473 0.6574C0.863426 0.710356 0.820488 0.773562 0.791176 0.84332C0.761863 0.913078 0.746765 0.987984 0.746765 1.06365C0.746765 1.13932 0.761863 1.21422 0.791176 1.28398C0.820488 1.35374 0.863426 1.41694 0.917473 1.4699L7.56372 7.9499C7.68044 8.06367 7.83698 8.12734 7.99997 8.12734C8.16296 8.12734 8.31951 8.06367 8.43622 7.9499L15.0825 1.47115C15.1369 1.41816 15.1802 1.35479 15.2097 1.2848C15.2392 1.21481 15.2545 1.13962 15.2545 1.06365C15.2545 0.987683 15.2392 0.912485 15.2097 0.842496C15.1802 0.772507 15.1369 0.709145 15.0825 0.65615C14.9709 0.547122 14.821 0.486084 14.665 0.486084C14.5089 0.486084 14.3591 0.547122 14.2475 0.65615V0.6574Z" fill="#FDFDFD"/>
</g></symbol><symbol id="burger" viewBox="0 0 24 26"><g fill="none">
<path fill-rule="evenodd" clip-rule="evenodd" d="M2.5 6.5C2.5 6.10218 2.65804 5.72064 2.93934 5.43934C3.22064 5.15804 3.60218 5 4 5H22C22.3978 5 22.7794 5.15804 23.0607 5.43934C23.342 5.72064 23.5 6.10218 23.5 6.5C23.5 6.89782 23.342 7.27936 23.0607 7.56066C22.7794 7.84196 22.3978 8 22 8H4C3.60218 8 3.22064 7.84196 2.93934 7.56066C2.65804 7.27936 2.5 6.89782 2.5 6.5ZM2.5 14C2.5 13.6022 2.65804 13.2206 2.93934 12.9393C3.22064 12.658 3.60218 12.5 4 12.5H22C22.3978 12.5 22.7794 12.658 23.0607 12.9393C23.342 13.2206 23.5 13.6022 23.5 14C23.5 14.3978 23.342 14.7794 23.0607 15.0607C22.7794 15.342 22.3978 15.5 22 15.5H4C3.60218 15.5 3.22064 15.342 2.93934 15.0607C2.65804 14.7794 2.5 14.3978 2.5 14ZM11.5 21.5C11.5 21.1022 11.658 20.7206 11.9393 20.4393C12.2206 20.158 12.6022 20 13 20H22C22.3978 20 22.7794 20.158 23.0607 20.4393C23.342 20.7206 23.5 21.1022 23.5 21.5C23.5 21.8978 23.342 22.2794 23.0607 22.5607C22.7794 22.842 22.3978 23 22 23H13C12.6022 23 12.2206 22.842 11.9393 22.5607C11.658 22.2794 11.5 21.8978 11.5 21.5Z" fill="white"/>
</g></symbol><symbol id="calendar" viewBox="0 0 18 18"><g fill="none">
<g clip-path="url(#clip0_1_196)">
<path d="M16.3125 18H1.6875C0.75375 18 0 17.2463 0 16.3125V2.8125C0 1.87875 0.75375 1.125 1.6875 1.125H16.3125C17.2463 1.125 18 1.87875 18 2.8125V16.3125C18 17.2463 17.2463 18 16.3125 18ZM1.6875 2.25C1.3725 2.25 1.125 2.4975 1.125 2.8125V16.3125C1.125 16.6275 1.3725 16.875 1.6875 16.875H16.3125C16.6275 16.875 16.875 16.6275 16.875 16.3125V2.8125C16.875 2.4975 16.6275 2.25 16.3125 2.25H1.6875Z" fill="#FDFDFD"/>
<path d="M5.0625 4.5C4.7475 4.5 4.5 4.2525 4.5 3.9375V0.5625C4.5 0.2475 4.7475 0 5.0625 0C5.3775 0 5.625 0.2475 5.625 0.5625V3.9375C5.625 4.2525 5.3775 4.5 5.0625 4.5ZM12.9375 4.5C12.6225 4.5 12.375 4.2525 12.375 3.9375V0.5625C12.375 0.2475 12.6225 0 12.9375 0C13.2525 0 13.5 0.2475 13.5 0.5625V3.9375C13.5 4.2525 13.2525 4.5 12.9375 4.5ZM17.4375 6.75H0.5625C0.2475 6.75 0 6.5025 0 6.1875C0 5.8725 0.2475 5.625 0.5625 5.625H17.4375C17.7525 5.625 18 5.8725 18 6.1875C18 6.5025 17.7525 6.75 17.4375 6.75Z" fill="#FDFDFD"/>
</g>

</g></symbol><symbol id="guide" viewBox="0 0 50 50"><g fill="none">
<rect width="50" height="50" rx="4" fill="#E5EEEB"/>
<g clip-path="url(#clip0_1_35)">
<path d="M19.0345 31.9276H22.678V32.23H19.0345V31.9276ZM35.0395 31.9276H43.0001V32.23H35.0395V31.9276ZM34.8446 20.8785C35.1761 21.3344 35.4439 21.7347 35.6571 22.0913C35.726 20.9452 35.9244 20.2457 36.1207 19.8438V23.0015C36.223 23.2605 36.2964 23.5328 36.3004 23.8194C36.3007 24.0228 36.2609 24.2095 36.1814 24.3774C36.164 24.415 36.1427 24.4512 36.1207 24.4869V30.3885C36.1207 30.6191 36.2123 30.8402 36.3753 31.0033C36.5384 31.1663 36.7595 31.2579 36.9901 31.2579C37.2206 31.2579 37.4418 31.1663 37.6048 31.0033C37.7678 30.8402 37.8594 30.6191 37.8594 30.3885V24.0418H38.1852V30.3885C38.1852 30.6191 38.2768 30.8402 38.4398 31.0032C38.6028 31.1662 38.8239 31.2578 39.0545 31.2578C39.285 31.2578 39.5061 31.1662 39.6691 31.0032C39.8321 30.8402 39.9237 30.6191 39.9237 30.3885V23.2883C37.9405 21.1585 36.5848 18.808 36.2571 18.2165C36.1947 18.2373 36.1291 18.2637 36.0609 18.2981C35.6828 18.4855 35.2751 18.8956 34.9898 19.6226C34.8698 19.9257 34.7665 20.2862 34.6864 20.7172C34.7465 20.7632 34.7997 20.8175 34.8446 20.8785ZM34.5091 23.3365L34.5105 23.3966L34.5426 23.4034C34.5316 23.381 34.5204 23.3587 34.5091 23.3365Z" fill="#45766A"/>
<path d="M37.4385 19.6932C38.046 20.6196 38.8962 21.7997 39.9236 22.9309V19.8455C39.9653 19.9309 40.0073 20.029 40.0488 20.1435C40.2469 20.6928 40.4136 21.5941 40.413 23.0005C40.413 23.3882 40.4006 23.8142 40.3732 24.2818C40.3687 24.3584 40.3799 24.435 40.4061 24.5071C40.4324 24.5792 40.4731 24.6451 40.5257 24.7009C40.5784 24.7567 40.6419 24.8011 40.7123 24.8314C40.7827 24.8617 40.8586 24.8773 40.9353 24.8772C41.0787 24.877 41.2166 24.8221 41.3209 24.7236C41.4252 24.6252 41.4879 24.4906 41.4963 24.3475C41.5231 23.899 41.537 23.4498 41.5379 23.0005C41.5351 20.8787 41.1963 19.7042 40.7339 18.998C40.5031 18.6477 40.2328 18.4227 39.9832 18.298C39.7339 18.1726 39.5148 18.1473 39.3903 18.1478L39.388 18.1479C39.3853 18.1478 39.383 18.147 39.3802 18.147H36.664C36.6608 18.147 36.6576 18.148 36.6545 18.148H36.6539C36.603 18.1482 36.5522 18.1519 36.5018 18.159C36.6579 18.4375 36.9781 18.9915 37.4385 19.6932Z" fill="#45766A"/>
<path d="M38.022 17.7463C38.8957 17.7463 39.6039 17.038 39.6039 16.1644C39.6039 15.2907 38.8957 14.5825 38.022 14.5825C37.1484 14.5825 36.4402 15.2907 36.4402 16.1644C36.4402 17.038 37.1484 17.7463 38.022 17.7463Z" fill="#45766A"/>
<path d="M11.7654 25.8765V40.0221C11.7654 40.8483 12.4352 41.5176 13.2609 41.5176C14.0869 41.5176 14.7567 40.8483 14.7567 40.0221V29.1023H15.3174V40.0221C15.3174 40.8483 15.9871 41.5176 16.8129 41.5176C17.6388 41.5176 18.3086 40.8483 18.3086 40.0221V21.8821C18.3893 22.0491 18.4612 22.2202 18.5239 22.3947C18.8648 23.3398 19.1516 24.8904 19.1506 27.3107C19.1506 27.9777 19.1291 28.7105 19.0824 29.5153C19.0512 30.0487 19.4585 30.5063 19.9922 30.5378C20.2484 30.5527 20.5001 30.4652 20.6918 30.2946C20.8835 30.124 20.9996 29.8842 21.0146 29.628C21.0635 28.7892 21.0862 28.0193 21.0862 27.3108C21.0813 23.6596 20.4982 21.6391 19.7031 20.424C19.3056 19.8208 18.8407 19.434 18.4113 19.2198C17.9951 19.01 17.6293 18.9637 17.4116 18.9615C17.3992 18.961 17.3866 18.9596 17.3738 18.9596H16.806L16.5086 21.2844L15.3292 19.8631L16.1445 18.9596H13.9293L14.7446 19.8631L13.5652 21.2844L13.2678 18.9596H12.7003C12.6641 18.9596 12.6284 18.9621 12.5933 18.9662C12.1649 18.972 11.7247 18.9968 11.2983 19.0083C11.1776 19.0115 11.0573 19.0145 10.9397 19.0144C10.249 19.0216 9.65036 18.9236 9.37238 18.7514C9.22855 18.666 9.15017 18.5878 9.07577 18.4533C9.00392 18.3178 8.93594 18.0979 8.93545 17.7245C8.93473 17.3213 9.02122 16.7486 9.24912 16.002C9.32378 15.7564 9.29787 15.4913 9.17707 15.2648C9.05628 15.0384 8.85049 14.8692 8.60497 14.7945C8.59844 14.7924 8.59203 14.7914 8.5855 14.7896V12.2679C8.84981 11.8438 9.52419 11.0864 10.7023 11.7887C13.8942 13.6914 14.0893 9.24819 14.0893 9.24819C14.0893 9.24819 12.4159 10.1758 11.2062 9.08707C10.1824 8.16567 8.94235 8.68824 8.58538 8.87066V8.48224H8.1418V14.7699C7.96856 14.8029 7.80764 14.8826 7.67643 15.0004C7.54522 15.1182 7.44872 15.2697 7.39737 15.4384C7.1321 16.3128 7.00097 17.0581 7 17.7243C6.99952 18.3344 7.11552 18.8884 7.36629 19.3608C7.74152 20.0793 8.40792 20.5099 9.0419 20.7068C9.68363 20.9117 10.3297 20.9475 10.9397 20.9496C10.9731 20.9496 11.0061 20.9488 11.0394 20.9486C11.2897 20.9464 11.5336 20.9386 11.7653 20.9294L11.7654 25.8765Z" fill="#45766A"/>
<path d="M15.4808 18.2336C16.7729 18.0216 17.7586 16.9005 17.7586 15.5486C17.7586 14.0452 16.5402 12.8268 15.0368 12.8268C13.5337 12.8268 12.3151 14.0452 12.3151 15.5486C12.3151 16.9005 13.301 18.0216 14.5929 18.2336C14.7374 18.2574 14.8856 18.2703 15.0368 18.2703C15.188 18.2703 15.3363 18.2575 15.4808 18.2336ZM29.223 24.1173C29.101 22.8997 28.8281 22.1248 28.4882 21.6051C28.2574 21.2548 27.9871 21.0298 27.7376 20.9053C27.4881 20.7796 27.2691 20.7546 27.1444 20.7551H27.1442C27.1409 20.7551 27.138 20.7541 27.1347 20.7541H26.6504C26.8713 21.6864 26.9292 22.5452 26.9292 23.1876C26.9292 23.5744 26.9084 23.8825 26.8898 24.082V25.3735H24.6634V24.0837C24.6363 23.7858 24.6231 23.4868 24.6237 23.1877C24.6237 22.5452 24.6817 21.6865 24.9027 20.7542H24.4184C24.4152 20.7542 24.412 20.7552 24.4089 20.7552H24.4083C24.2838 20.7547 24.0645 20.7795 23.8153 20.9054C23.437 21.0928 23.0295 21.5031 22.7442 22.2299C22.4554 22.9597 22.2615 24.0146 22.2605 25.6077C22.2608 26.0195 22.2737 26.4672 22.3026 26.9549C22.311 27.098 22.3738 27.2325 22.478 27.3309C22.5823 27.4293 22.7202 27.4842 22.8635 27.4844C22.8747 27.4844 22.8858 27.4839 22.8971 27.4834C23.046 27.4747 23.1853 27.4071 23.2844 27.2956C23.3835 27.1842 23.4343 27.0379 23.4256 26.889C23.3996 26.4624 23.3863 26.0351 23.3856 25.6077C23.3831 23.9048 23.6313 22.9497 23.8754 22.4508V32.9958C23.8754 33.2264 23.967 33.4475 24.13 33.6105C24.293 33.7735 24.5141 33.8651 24.7447 33.8651C24.9752 33.8651 25.1963 33.7735 25.3593 33.6105C25.5224 33.4475 25.6139 33.2264 25.6139 32.9958V26.6491H25.9397V32.9958C25.9397 33.2264 26.0313 33.4475 26.1943 33.6106C26.3574 33.7736 26.5785 33.8652 26.8091 33.8652C27.0397 33.8652 27.2608 33.7736 27.4238 33.6106C27.5869 33.4475 27.6785 33.2264 27.6785 32.9958V22.4532C27.7201 22.5385 27.7621 22.6364 27.8034 22.7506C28.0017 23.3002 28.1683 24.2012 28.1678 25.608C28.1678 25.9954 28.1552 26.4215 28.1281 26.8892C28.1162 27.0941 28.2166 27.278 28.3747 27.3857C28.431 26.3377 28.5879 25.4955 28.8512 24.8295C28.963 24.5435 29.0904 24.3096 29.223 24.1173Z" fill="#45766A"/>
<path d="M24.8344 23.1876C24.8344 23.5101 24.8493 23.7758 24.865 23.9674H26.688C26.7035 23.7758 26.7184 23.5101 26.7184 23.1876C26.7184 22.5464 26.6582 21.6844 26.4325 20.7541H25.1203C24.8946 21.6846 24.8344 22.5466 24.8344 23.1876Z" fill="#45766A"/>
<path d="M25.7765 20.3536C26.6502 20.3536 27.3584 19.6453 27.3584 18.7717C27.3584 17.898 26.6502 17.1898 25.7765 17.1898C24.9029 17.1898 24.1947 17.898 24.1947 18.7717C24.1947 19.6453 24.9029 20.3536 25.7765 20.3536Z" fill="#45766A"/>
<path d="M25.775 25.1039C25.9933 25.1039 26.1704 24.9269 26.1704 24.7085C26.1704 24.4901 25.9933 24.313 25.775 24.313C25.5566 24.313 25.3795 24.4901 25.3795 24.7085C25.3795 24.9269 25.5566 25.1039 25.775 25.1039Z" fill="#45766A"/>
<path d="M31.2881 20.6251H33.4501C33.1707 20.1773 32.6751 19.8783 32.1082 19.8783C31.2346 19.8783 30.5264 20.5864 30.5264 21.46C30.5264 22.3338 31.2346 23.042 32.1082 23.042C32.6971 23.042 33.2099 22.7195 33.4822 22.2421H31.288V20.6251H31.2881Z" fill="#45766A"/>
<path d="M32.6357 21.8671C32.8751 21.8671 33.0692 21.673 33.0692 21.4335C33.0692 21.1941 32.8751 21 32.6357 21C32.3962 21 32.2021 21.1941 32.2021 21.4335C32.2021 21.673 32.3962 21.8671 32.6357 21.8671Z" fill="#45766A"/>
<path d="M36.0585 23.8226C36.0535 23.4619 35.9287 23.1174 35.7053 22.673C35.4787 22.231 35.1392 21.6951 34.649 21.0208C34.6056 20.9611 34.5508 20.9105 34.4878 20.8719C34.4248 20.8333 34.3548 20.8075 34.2818 20.796C34.2088 20.7845 34.1343 20.7875 34.0625 20.8048C33.9907 20.8221 33.9229 20.8534 33.8632 20.8969C33.8035 20.9403 33.7529 20.9951 33.7144 21.0581C33.6758 21.1211 33.6501 21.191 33.6386 21.264C33.627 21.3369 33.63 21.4114 33.6473 21.4832C33.6646 21.555 33.6959 21.6227 33.7393 21.6824C34.2077 22.3259 34.519 22.8229 34.704 23.1853C34.8226 23.4121 34.8849 23.5881 34.9137 23.6987C34.7538 23.6944 34.497 23.6453 34.2486 23.5864C34.1147 23.5554 33.9812 23.5229 33.8515 23.4962C33.7424 23.4744 33.6398 23.4553 33.5219 23.4483C33.5035 23.4463 33.4854 23.4426 33.4666 23.4426H30.7503C30.7471 23.4426 30.7441 23.4435 30.7408 23.4435H30.7402C30.6154 23.4431 30.3965 23.4681 30.1471 23.5938C29.769 23.7814 29.3614 24.1915 29.076 24.9182C28.7874 25.648 28.5935 26.7032 28.5925 28.2961C28.5925 28.7081 28.6058 29.1555 28.6345 29.6433C28.6432 29.7922 28.7107 29.9315 28.8222 30.0306C28.9336 30.1297 29.0799 30.1805 29.2288 30.1718C29.3777 30.1631 29.517 30.0956 29.6161 29.9842C29.7153 29.8727 29.7661 29.7265 29.7574 29.5776C29.7316 29.1509 29.7183 28.7235 29.7175 28.2961C29.7151 26.5934 29.9634 25.6386 30.2071 25.1394V35.6842C30.2071 36.1645 30.5964 36.5534 31.0764 36.5534C31.5564 36.5534 31.9457 36.1645 31.9457 35.6842V29.3377H32.2714V35.6842C32.2714 35.9147 32.363 36.1358 32.526 36.2988C32.689 36.4619 32.9101 36.5534 33.1407 36.5534C33.2549 36.5535 33.3679 36.531 33.4734 36.4873C33.5789 36.4437 33.6748 36.3796 33.7555 36.2989C33.8362 36.2182 33.9003 36.1224 33.944 36.0169C33.9877 35.9114 34.0102 35.7984 34.0102 35.6842V24.6855C34.0766 24.7009 34.1447 24.7162 34.2155 24.7313C34.444 24.7789 34.6875 24.8228 34.9448 24.824C35.1606 24.821 35.406 24.799 35.6582 24.6312C35.7894 24.541 35.8945 24.4178 35.9628 24.274C36.032 24.1275 36.0587 23.9713 36.0585 23.8226Z" fill="#45766A"/>
</g>

</g></symbol><symbol id="logo-desktop" viewBox="0 0 137 69"><g fill="none">
<path d="M4.96094 61.5078H8.10156C8.59375 61.5078 8.84375 61.4688 9.07031 61.375C9.60156 61.1562 10.0078 60.6875 10.0078 60.0312C10.0078 59.3828 9.61719 58.9062 9.07031 58.6797C8.84375 58.5859 8.60156 58.5391 8.09375 58.5391H4.96094V61.5078ZM4.96094 68H3.09375V56.7969H8.32812C9.19531 56.7969 9.76562 56.9453 10.25 57.2266C11.2188 57.75 11.8516 58.7578 11.8516 60.0234C11.8516 61.2578 11.2188 62.2812 10.2422 62.8125C9.75781 63.0859 9.19531 63.2422 8.32812 63.2422H4.96094V68ZM18.8687 56.7969H20.9547L24.0016 62.5391L26.9547 56.7969H29.0406L24.7359 64.8984C24.2047 65.8984 23.8609 66.4922 23.3609 67.0156C22.7828 67.6094 22.0797 68.0234 21.1422 68.0234C20.4781 68.0234 19.8297 67.8125 19.2672 67.4219L20.2203 65.8359C20.5016 66.0391 20.8297 66.1484 21.1656 66.1484C21.8219 66.1484 22.2203 65.7578 22.7281 64.8438C22.7359 64.8125 22.9859 64.3672 22.9859 64.3672L18.8687 56.7969ZM36.6281 56.7969H37.6359L42.4875 62.6328L47.3312 56.7969H48.3469V68H46.4719V60.3516L42.4875 65.2188L38.4953 60.3516V68H36.6281V56.7969ZM56.325 56.7891H65.7938V58.5391H61.9891V68H60.1141V58.5391H56.325V56.7891ZM81.5609 68V60.1797L74.7797 68H73.7641V56.7969H75.6391V64.6094C77.8969 62.0078 80.1547 59.3984 82.4203 56.7969H83.4359V68H81.5609ZM100.773 64.6719C100.773 65.9844 100.117 67.0234 99.1172 67.5703C98.625 67.8438 98.0391 68 97.1641 68H92.0312V56.7969H99.7578V58.5391H93.8984V61.3516H97.1641C98.0391 61.3516 98.625 61.5078 99.1094 61.7891C100.117 62.3281 100.773 63.3984 100.773 64.6719ZM98.9219 64.6719C98.9219 63.9688 98.5 63.4609 97.9375 63.2188C97.7031 63.125 97.4453 63.0781 96.9453 63.0781H93.8984V66.2656H96.9375C97.4531 66.2656 97.7109 66.2188 97.9375 66.1172C98.5078 65.8828 98.9219 65.3672 98.9219 64.6719ZM108.853 56.7969H116.502V58.5312H110.728V60.9922H115.205V62.7109H110.728V66.2656H116.502V68H108.853V56.7969ZM124.097 56.7891H133.566V58.5391H129.761V68H127.886V58.5391H124.097V56.7891Z" fill="white"/>
<mask id="mask0_49704_338" style="mask-type:luminance" maskUnits="userSpaceOnUse" x="0" y="0" width="137" height="48">
<path d="M137 0H0V48H137V0Z" fill="white"/>
</mask>
<g mask="url(#mask0_49704_338)">
<path d="M0.153499 27.9142C0.397899 27.8562 24.8152 22.0349 43.1998 13.8808C45.2449 12.9738 46.9008 12.4361 48.2956 12.1827C46.7329 13.7573 37.54 17.6827 44.882 18.3783C51.6186 19.0172 40.5214 27.0108 35.4343 29.917C22.0532 34.1597 13.3687 35.8259 13.2126 35.8555L13.3967 36.8371C13.4423 36.8284 14.2201 36.6793 15.6276 36.3679C23.0039 34.7354 47.7648 28.6221 76.1721 14.6517C80.1558 12.6925 83.4072 11.606 86.1436 11.2028C85.3414 15.3186 76.0532 24.42 90.8867 26.7182C104.416 28.8142 77.2846 34.1361 67.1729 36.8458C65.7145 37.2367 64.6097 37.5733 64.0327 37.8377C59.5683 39.8854 111.467 38.0435 134.676 37.9502C135.433 37.9769 136.206 37.9922 137 37.9922V36.9933C116.27 36.9933 108.928 27.5136 103.028 19.8966C96.8975 11.9809 92.0551 5.72774 75.7316 13.7553C71.9386 15.6195 68.1041 17.3982 64.2312 19.0902C60.8086 17.8722 58.7358 16.1204 56.9198 14.5827C53.5385 11.7195 51.0952 9.65046 42.9304 13.2725C24.6028 21.4006 0.243734 27.2086 0 27.2662L0.153499 27.9142Z" fill="#FDFDFD"/>
</g>
</g></symbol><symbol id="logo-mobile" viewBox="0 0 84 44"><g fill="none">
<g filter="url(#filter0_dd_49704_339)">
<path d="M3.0417 37.588H4.96733C5.26911 37.588 5.4224 37.5642 5.56131 37.5068C5.88704 37.3731 6.13612 37.0867 6.13612 36.6856C6.13612 36.2894 5.89662 35.9981 5.56131 35.8597C5.4224 35.8024 5.2739 35.7738 4.96254 35.7738H3.0417V37.588ZM3.0417 41.5555H1.89685V34.7091H5.10625C5.63795 34.7091 5.98763 34.7998 6.28462 34.9717C6.87863 35.2916 7.26663 35.9074 7.26663 36.6809C7.26663 37.4352 6.87863 38.0606 6.27984 38.3853C5.98284 38.5524 5.63795 38.6479 5.10625 38.6479H3.0417V41.5555ZM11.5691 34.7091H12.8481L14.7163 38.2182L16.5269 34.7091H17.8059L15.1665 39.66C14.8408 40.2711 14.63 40.634 14.3234 40.9539C13.969 41.3168 13.5379 41.5698 12.9631 41.5698C12.5559 41.5698 12.1583 41.4409 11.8134 41.2022L12.3978 40.2329C12.5703 40.3571 12.7714 40.4239 12.9774 40.4239C13.3798 40.4239 13.6241 40.1852 13.9354 39.6267C13.9402 39.6075 14.0935 39.3354 14.0935 39.3354L11.5691 34.7091ZM22.4581 34.7091H23.076L26.0507 38.2755L29.0205 34.7091H29.6433V41.5555H28.4937V36.8814L26.0507 39.8558L23.6029 36.8814V41.5555H22.4581V34.7091ZM34.535 34.7043H40.3407V35.7738H38.0079V41.5555H36.8582V35.7738H34.535V34.7043ZM50.0081 41.5555V36.7764L45.8503 41.5555H45.2276V34.7091H46.3772V39.4834C47.7616 37.8935 49.1459 36.2989 50.535 34.7091H51.1577V41.5555H50.0081ZM61.7878 39.5216C61.7878 40.3237 61.3856 40.9586 60.7725 41.2929C60.4708 41.46 60.1115 41.5555 59.575 41.5555H56.4278V34.7091H61.1653V35.7738H57.5727V37.4925H59.575C60.1115 37.4925 60.4708 37.588 60.7678 37.7599C61.3856 38.0893 61.7878 38.7434 61.7878 39.5216ZM60.6528 39.5216C60.6528 39.0919 60.3941 38.7816 60.0492 38.6336C59.9055 38.5763 59.7474 38.5476 59.4409 38.5476H57.5727V40.4955H59.4361C59.7522 40.4955 59.9103 40.4669 60.0492 40.4049C60.3989 40.2616 60.6528 39.9465 60.6528 39.5216ZM66.7419 34.7091H71.4318V35.769H67.8916V37.2729H70.6366V38.3232H67.8916V40.4955H71.4318V41.5555H66.7419V34.7091ZM76.0886 34.7043H81.8944V35.7738H79.5614V41.5555H78.4118V35.7738H76.0886V34.7043Z" fill="white"/>
<mask id="mask0_49704_339" style="mask-type:luminance" maskUnits="userSpaceOnUse" x="0" y="0" width="84" height="30">
<path d="M84 0H0V29.3333H84V0Z" fill="white"/>
</mask>
<g mask="url(#mask0_49704_339)">
<path d="M0.0941162 17.0586C0.243967 17.0232 15.2152 13.4657 26.4875 8.48265C27.7414 7.92837 28.7567 7.59978 29.6119 7.44492C28.6537 8.40718 23.0172 10.806 27.5189 11.2311C31.6494 11.6216 24.8452 16.5065 21.7261 18.2826C13.5217 20.8753 8.19687 21.8935 8.10116 21.9116L8.21404 22.5115C8.24199 22.5062 8.71889 22.4151 9.58189 22.2248C14.1046 21.2271 29.2864 17.4912 46.7041 8.95376C49.1466 7.75647 51.1402 7.09249 52.818 6.84609C52.3261 9.36131 46.6312 14.9233 55.7262 16.3277C64.0215 17.6086 47.3862 20.8609 41.1863 22.5168C40.2921 22.7557 39.6147 22.9614 39.2609 23.123C36.5236 24.3744 68.3447 23.2487 82.5751 23.1917C83.0392 23.208 83.5132 23.2174 84 23.2174V22.607C71.2896 22.607 66.788 16.8138 63.1705 12.159C59.4116 7.3216 56.4425 3.50023 46.434 8.40596C44.1083 9.54519 41.7573 10.6322 39.3826 11.6662C37.2841 10.9218 36.0132 9.85129 34.8997 8.91159C32.8265 7.16186 31.3284 5.89745 26.3223 8.11091C15.0849 13.0781 0.149443 16.6274 0 16.6626L0.0941162 17.0586Z" fill="#FDFDFD"/>
</g>
</g>

</g></symbol><symbol id="pinterest" viewBox="0 0 32 32"><g fill="none">
<path d="M12.0533 28.7201C13.3333 29.1068 14.6267 29.3334 16 29.3334C19.5362 29.3334 22.9276 27.9287 25.4281 25.4282C27.9286 22.9277 29.3333 19.5363 29.3333 16.0001C29.3333 14.2491 28.9885 12.5153 28.3184 10.8976C27.6483 9.27996 26.6662 7.81011 25.4281 6.57199C24.19 5.33388 22.7201 4.35175 21.1025 3.68169C19.4848 3.01163 17.751 2.66675 16 2.66675C14.249 2.66675 12.5152 3.01163 10.8976 3.68169C9.27989 4.35175 7.81003 5.33388 6.57192 6.57199C4.07143 9.07248 2.66667 12.4639 2.66667 16.0001C2.66667 21.6668 6.22667 26.5334 11.2533 28.4534C11.1333 27.4134 11.0133 25.6934 11.2533 24.5068L12.7867 17.9201C12.7867 17.9201 12.4 17.1468 12.4 15.9201C12.4 14.0801 13.5467 12.7067 14.8533 12.7067C16 12.7067 16.5333 13.5468 16.5333 14.6268C16.5333 15.7734 15.7733 17.4134 15.3867 18.9868C15.16 20.2934 16.08 21.4401 17.4133 21.4401C19.7867 21.4401 21.6267 18.9068 21.6267 15.3334C21.6267 12.1334 19.3333 9.94675 16.04 9.94675C12.28 9.94675 10.0667 12.7468 10.0667 15.6934C10.0667 16.8401 10.44 18.0001 11.0533 18.7601C11.1733 18.8401 11.1733 18.9468 11.1333 19.1468L10.7467 20.6001C10.7467 20.8268 10.6 20.9068 10.3733 20.7468C8.66667 20.0001 7.68001 17.5734 7.68001 15.6134C7.68001 11.4001 10.6667 7.57342 16.4267 7.57342C21.0133 7.57342 24.5867 10.8667 24.5867 15.2401C24.5867 19.8268 21.7467 23.5068 17.68 23.5068C16.3867 23.5068 15.12 22.8134 14.6667 22.0001L13.7733 25.1601C13.4667 26.3068 12.6267 27.8401 12.0533 28.7601V28.7201Z" fill="white"/>
</g></symbol><symbol id="play-batton" viewBox="0 0 50 50"><g fill="none">
<rect width="50" height="50" rx="25" fill="#FDFDFD" fill-opacity="0.6"/>
<path d="M22.2427 17.6557C21.9639 17.4965 21.6482 17.4132 21.3271 17.4143C21.0061 17.4154 20.691 17.5008 20.4133 17.6619C20.1356 17.823 19.9051 18.0542 19.7448 18.3324C19.5845 18.6106 19.5001 18.926 19.5 19.247V30.7549C19.5001 31.0759 19.5845 31.3913 19.7448 31.6695C19.9051 31.9477 20.1356 32.1789 20.4133 32.34C20.691 32.5012 21.0061 32.5865 21.3271 32.5876C21.6482 32.5887 21.9639 32.5055 22.2427 32.3462L32.3113 26.5914C32.5917 26.431 32.8248 26.1993 32.9869 25.9199C33.1489 25.6404 33.2343 25.3231 33.2343 25C33.2343 24.677 33.1489 24.3597 32.9869 24.0802C32.8248 23.8008 32.5917 23.5691 32.3113 23.4087L22.2427 17.6557Z" fill="#1A3E3E"/>
</g></symbol><symbol id="scype" viewBox="0 0 24 24"><g fill="none">
<path d="M20 4C22.76 6.72 23.8 10.52 23.1467 14.0667C23.6933 15.0267 24 16.1467 24 17.3333C24 19.1014 23.2976 20.7971 22.0474 22.0474C20.7971 23.2976 19.1014 24 17.3333 24C16.1467 24 15.0267 23.6933 14.0667 23.1467C10.52 23.8 6.72 22.76 4 20C1.24 17.28 0.2 13.48 0.853333 9.93333C0.306667 8.97333 0 7.85333 0 6.66667C0 4.89856 0.702379 3.20286 1.95262 1.95262C3.20286 0.702379 4.89856 0 6.66667 0C7.85333 0 8.97333 0.306667 9.93333 0.853333C13.48 0.2 17.28 1.24 20 4ZM12.0533 18.88C15.88 18.88 17.7867 17.04 17.7867 14.56C17.7867 12.9733 17.04 11.28 14.1467 10.6267L11.4933 10.04C10.48 9.81333 9.33333 9.50667 9.33333 8.56C9.33333 7.6 10.1333 6.93333 11.6 6.93333C14.5733 6.93333 14.2933 8.97333 15.7733 8.97333C16.5467 8.97333 17.2133 8.52 17.2133 7.73333C17.2133 5.90667 14.2933 4.53333 11.8133 4.53333C9.13333 4.53333 6.26667 5.68 6.26667 8.72C6.26667 10.1867 6.78667 11.7467 9.66667 12.4667L13.2533 13.3733C14.3333 13.64 14.6 14.24 14.6 14.8C14.6 15.7067 13.6933 16.6 12.0533 16.6C8.84 16.6 9.28 14.1333 7.56 14.1333C6.78667 14.1333 6.22667 14.6667 6.22667 15.4267C6.22667 16.9067 8 18.88 12.0533 18.88Z" fill="white"/>
</g></symbol><symbol id="shield" viewBox="0 0 50 50"><g fill="none">
<rect width="50" height="50" rx="4" fill="#E3E6EE"/>
<path d="M38.4036 14.0611C38.3342 13.7483 38.2162 13.4484 38.0537 13.1723C38.0537 13.1723 34.151 7 23.9992 7C13.8505 7 9.94482 13.1723 9.94482 13.1723C9.80108 13.3988 9.6438 13.7984 9.59413 14.0611C9.59413 14.0611 8.83934 18.0638 10.0886 23.8012C11.2392 29.0758 14.4194 36.6365 23.0541 42.6997C23.3309 42.8948 23.6613 42.9996 24 42.9996C24.3387 42.9996 24.6691 42.8948 24.9459 42.6997C33.5776 36.6358 36.7593 29.0758 37.9092 23.8012C39.1622 18.0638 38.4036 14.0611 38.4036 14.0611ZM34.5822 23.0758C34.5499 23.227 34.51 23.385 34.4723 23.5401H23.9992V39.1741C17.2625 34.0613 14.579 27.9793 13.5254 23.5401H23.9992V10.4052C31.2274 10.4052 34.446 14.0445 35.0842 14.8738C35.1895 15.6384 35.5176 18.79 34.5822 23.0758Z" fill="#6276AA"/>
</g></symbol><symbol id="star" viewBox="0 0 18 17"><g fill="none">
<path d="M9 14.27L13.15 16.78C13.91 17.24 14.84 16.56 14.64 15.7L13.54 10.98L17.21 7.79999C17.88 7.21999 17.52 6.11999 16.64 6.04999L11.81 5.64L9.92 1.17999C9.58 0.369995 8.42 0.369995 8.08 1.17999L6.19 5.62999L1.36 6.03999C0.48 6.10999 0.12 7.20999 0.79 7.78999L4.46 10.97L3.36 15.69C3.16 16.55 4.09 17.23 4.85 16.77L9 14.27Z" fill="#F2BE22"/>
</g></symbol><symbol id="tag" viewBox="0 0 50 50"><g fill="none">
<rect width="50" height="50" rx="4" fill="#F3F1E1"/>
<path d="M33.3006 16.4461L26.0547 11.8351V8.05469C26.0547 7.47222 25.5825 7 25 7C24.4175 7 23.9453 7.47222 23.9453 8.05469V11.8351L16.6994 16.4461C16.5497 16.5414 16.4265 16.6729 16.3411 16.8284C16.2557 16.9839 16.2109 17.1585 16.2109 17.3359V41.9453C16.2109 42.5278 16.6832 43 17.2656 43H32.7344C33.3168 43 33.7891 42.5278 33.7891 41.9453V17.3359C33.7891 16.9754 33.6048 16.6398 33.3006 16.4461ZM25 24.2969C23.0615 24.2969 21.4844 22.7198 21.4844 20.7812C21.4844 19.21 22.5205 17.8765 23.9453 17.4275V18.3203C23.9453 18.9028 24.4175 19.375 25 19.375C25.5825 19.375 26.0547 18.9028 26.0547 18.3203V17.4275C27.4795 17.8765 28.5156 19.21 28.5156 20.7812C28.5156 22.7198 26.9385 24.2969 25 24.2969Z" fill="#F2BE22"/>
</g></symbol><symbol id="telegram" viewBox="0 0 32 32"><g fill="none">
<path d="M16 2.66675C8.63999 2.66675 2.66666 8.64008 2.66666 16.0001C2.66666 23.3601 8.63999 29.3334 16 29.3334C23.36 29.3334 29.3333 23.3601 29.3333 16.0001C29.3333 8.64008 23.36 2.66675 16 2.66675ZM22.1867 11.7334C21.9867 13.8401 21.12 18.9601 20.68 21.3201C20.4933 22.3201 20.12 22.6534 19.7733 22.6934C19 22.7601 18.4133 22.1868 17.6667 21.6934C16.4933 20.9201 15.8267 20.4401 14.6933 19.6934C13.3733 18.8268 14.2267 18.3468 14.9867 17.5734C15.1867 17.3734 18.6 14.2668 18.6667 13.9867C18.6759 13.9443 18.6747 13.9003 18.6631 13.8585C18.6515 13.8167 18.6298 13.7783 18.6 13.7468C18.52 13.6801 18.4133 13.7067 18.32 13.7201C18.2 13.7467 16.3333 14.9868 12.6933 17.4401C12.16 17.8001 11.68 17.9868 11.2533 17.9734C10.7733 17.9601 9.86666 17.7068 9.18666 17.4801C8.34666 17.2134 7.69332 17.0668 7.74666 16.6001C7.77332 16.3601 8.10666 16.1201 8.73332 15.8668C12.6267 14.1734 15.2133 13.0534 16.5067 12.5201C20.2133 10.9734 20.9733 10.7067 21.48 10.7067C21.5867 10.7067 21.84 10.7334 22 10.8667C22.1333 10.9734 22.1733 11.1201 22.1867 11.2268C22.1733 11.3068 22.2 11.5468 22.1867 11.7334Z" fill="white"/>
</g></symbol><symbol id="vk" viewBox="0 0 27 27"><g fill="none">
<path d="M13.36 -0.000244141C5.98138 -0.000244141 0 5.98114 0 13.3598C0 20.7384 5.98138 26.7198 13.36 26.7198C20.7386 26.7198 26.72 20.7384 26.72 13.3598C26.72 5.98114 20.7386 -0.000244141 13.36 -0.000244141ZM18.498 15.0729C18.498 15.0729 19.6796 16.2391 19.9704 16.7805C19.9788 16.7916 19.9829 16.8027 19.9857 16.8083C20.104 17.0073 20.1318 17.1618 20.0734 17.2773C19.976 17.4693 19.642 17.564 19.5279 17.5723H17.4404C17.2956 17.5723 16.9922 17.5348 16.6248 17.2815C16.3423 17.0839 16.064 16.7596 15.7926 16.4437C15.3877 15.9733 15.037 15.5669 14.6835 15.5669C14.6386 15.5669 14.594 15.5739 14.5513 15.5878C14.2841 15.6741 13.9417 16.0554 13.9417 17.0713C13.9417 17.3886 13.6912 17.5709 13.5145 17.5709H12.5584C12.2327 17.5709 10.5363 17.4568 9.03331 15.8717C7.19352 13.9303 5.53744 10.0365 5.52352 10.0003C5.41915 9.74838 5.63486 9.61339 5.87005 9.61339H7.97842C8.25954 9.61339 8.35139 9.78456 8.41541 9.93625C8.49056 10.113 8.76611 10.8158 9.2184 11.6063C9.95181 12.8949 10.4013 13.4182 10.7618 13.4182C10.8293 13.4174 10.8957 13.4002 10.9552 13.3681C11.4256 13.1065 11.3379 11.4295 11.317 11.0816C11.317 11.0162 11.3156 10.3315 11.0749 10.0031C10.9023 9.76508 10.6087 9.67462 10.4305 9.64122C10.5026 9.54173 10.5976 9.46106 10.7075 9.40603C11.0303 9.2446 11.6121 9.22094 12.1896 9.22094H12.5111C13.1373 9.22929 13.2988 9.26965 13.5256 9.3267C13.9849 9.43665 13.9946 9.73307 13.9542 10.7476C13.9417 11.0357 13.9292 11.3613 13.9292 11.7454C13.9292 11.8289 13.925 11.918 13.925 12.0126C13.9111 12.5289 13.8944 13.1148 14.259 13.3556C14.3066 13.3854 14.3615 13.4013 14.4177 13.4015C14.5443 13.4015 14.9256 13.4015 15.9582 11.6299C16.2767 11.0597 16.5534 10.4671 16.7863 9.85693C16.8072 9.82075 16.8684 9.70941 16.9408 9.66627C16.9942 9.63904 17.0534 9.62519 17.1133 9.62591H19.5919C19.8619 9.62591 20.047 9.66627 20.0817 9.77065C20.143 9.93625 20.0706 10.4414 18.9392 11.9737L18.434 12.6403C17.4084 13.9846 17.4084 14.0528 18.498 15.0729Z" fill="white"/>
</g></symbol></svg>