<svg xmlns="http://www.w3.org/2000/svg" xmlns:xlink="http://www.w3.org/1999/xlink"><defs><clipPath id="a"><path fill="#fff" d="M0 0h21v24H0z"/></clipPath><clipPath id="a"><path fill="#fff" d="M7 7h36v36H7z"/></clipPath></defs><symbol id="arrow-down"><g fill="none"><path fill="#FDFDFD" d="M14.248.657 8 6.747 1.752.657a.597.597 0 0 0-.96.186.569.569 0 0 0 .125.627l6.647 6.48a.625.625 0 0 0 .872 0l6.646-6.479a.568.568 0 0 0 0-.815.598.598 0 0 0-.835 0v.001Z"/></g></symbol><symbol id="arrow-right"><g fill="none"><path fill="#FDFDFD" d="M5.715 4.61 1.265.16A.543.543 0 0 0 .878 0a.543.543 0 0 0-.386.16L.164.487a.548.548 0 0 0 0 .774L3.9 4.998.16 8.739a.543.543 0 0 0-.16.387c0 .146.057.284.16.387l.327.327c.103.103.24.16.387.16a.543.543 0 0 0 .387-.16l4.454-4.454a.544.544 0 0 0 .16-.388.544.544 0 0 0-.16-.388Z"/></g></symbol><symbol id="burger"><g fill="none"><path fill="#fff" fill-rule="evenodd" d="M4.5 7.5A1.5 1.5 0 0 1 6 6h18a1.5 1.5 0 0 1 0 3H6a1.5 1.5 0 0 1-1.5-1.5Zm0 7.5A1.5 1.5 0 0 1 6 13.5h18a1.5 1.5 0 1 1 0 3H6A1.5 1.5 0 0 1 4.5 15Zm9 7.5A1.5 1.5 0 0 1 15 21h9a1.5 1.5 0 1 1 0 3h-9a1.5 1.5 0 0 1-1.5-1.5Z" clip-rule="evenodd"/></g></symbol><symbol id="hand-pointer"><g fill="none"><g clip-path="url(#a)"><path fill="#FDFDFD" d="M6 1.88a1.87 1.87 0 1 1 3.75 0v6.94a2.25 2.25 0 0 1 3.6.9 2.25 2.25 0 0 1 3.9 1.36A2.25 2.25 0 0 1 21 12.75V18a6 6 0 0 1-6 6h-4a9.4 9.4 0 0 1-7.25-3.75l-3.38-4.5a1.87 1.87 0 1 1 3-2.25L6 17V1.87Zm5.25 12.37a.75.75 0 0 0-.75-.75.75.75 0 0 0-.75.75v4.5c0 .41.34.75.75.75s.75-.34.75-.75v-4.5Zm2.25-.75a.75.75 0 0 0-.75.75v4.5c0 .41.34.75.75.75s.75-.34.75-.75v-4.5a.75.75 0 0 0-.75-.75Zm3.75.75a.75.75 0 0 0-.75-.75.75.75 0 0 0-.75.75v4.5c0 .41.34.75.75.75s.75-.34.75-.75v-4.5Z"/></g></g></symbol><symbol id="icon-close"><g fill="none"><path fill="#fff" d="M6.4 19 5 17.6l5.6-5.6L5 6.4 6.4 5l5.6 5.6L17.6 5 19 6.4 13.4 12l5.6 5.6-1.4 1.4-5.6-5.6L6.4 19Z"/></g></symbol><symbol id="logo"><g fill="none"><path fill="#fff" d="M4.96 61.5H8.1c.5 0 .74-.03.97-.13a1.43 1.43 0 0 0 0-2.69c-.23-.1-.47-.14-.98-.14H4.96v2.97Zm0 6.5H3.1V56.8h5.24c.87 0 1.44.15 1.92.43.97.52 1.6 1.53 1.6 2.8a3.1 3.1 0 0 1-1.6 2.78c-.5.28-1.05.43-1.92.43H4.96V68Zm13.9-11.2h2.1L24 62.54l2.95-5.74h2.1l-4.31 8.1a9 9 0 0 1-1.38 2.12 3 3 0 0 1-2.22 1c-.66 0-1.31-.2-1.87-.6l.95-1.58c.28.2.61.3.95.3.65 0 1.05-.38 1.56-1.3 0-.03.26-.47.26-.47l-4.12-7.57Zm17.77 0h1l4.86 5.83 4.84-5.83h1.02V68h-1.88v-7.65l-3.98 4.87-4-4.87V68h-1.86V56.8Zm19.7-.01h9.46v1.75H62V68H60.1v-9.46h-3.78v-1.75ZM81.56 68v-7.82L74.78 68h-1.02V56.8h1.88v7.8l6.78-7.8h1.02V68h-1.88Zm19.21-3.33a3.2 3.2 0 0 1-1.65 2.9c-.5.27-1.08.43-1.96.43h-5.13V56.8h7.73v1.74H93.9v2.81h3.26c.88 0 1.47.16 1.95.44a3.2 3.2 0 0 1 1.66 2.88Zm-1.85 0c0-.7-.42-1.2-.98-1.45a2.5 2.5 0 0 0-1-.14H93.9v3.19h3.04c.51 0 .77-.05 1-.15.57-.24.98-.75.98-1.45Zm9.93-7.87h7.65v1.73h-5.77V61h4.47v1.72h-4.47v3.56h5.77V68h-7.65V56.8Zm15.25-.01h9.47v1.75h-3.8V68h-1.88v-9.46h-3.8v-1.75Z"/><mask id="a" width="137" height="48" x="0" y="0" maskUnits="userSpaceOnUse" style="mask-type:luminance"><path fill="#fff" d="M137 0H0v48h137V0Z"/></mask><g mask="url(#a)"><path fill="#FDFDFD" d="M.15 27.91c.25-.05 24.67-5.88 43.05-14.03 2.04-.9 3.7-1.44 5.1-1.7-1.57 1.58-10.76 5.5-3.42 6.2 6.74.64-4.36 8.63-9.45 11.54-13.38 4.24-22.06 5.9-22.22 5.94l.19.98c.04-.01.82-.16 2.23-.47 7.37-1.63 32.13-7.75 60.54-21.72 3.99-1.96 7.24-3.04 9.97-3.45-.8 4.12-10.09 13.22 4.75 15.52 13.53 2.1-13.6 7.42-23.72 10.13-1.46.39-2.56.72-3.14.99-4.46 2.05 47.44.2 70.65.11.75.03 1.53.04 2.32.04v-1c-20.73 0-28.07-9.48-33.97-17.1-6.13-7.9-10.97-14.16-27.3-6.13-3.8 1.86-7.63 3.64-11.5 5.33-3.42-1.22-5.5-2.97-7.31-4.5-3.38-2.87-5.82-4.94-13.99-1.32C24.6 21.4.24 27.21 0 27.27l.15.64Z"/></g></g></symbol><symbol id="new"><g fill="none"><rect width="44" height="20" fill="#fff" rx="4"/><path fill="#1A3E3E" d="M10.78 14V8.13h1.46v.91a2 2 0 0 1 .8-.76A2.5 2.5 0 0 1 14.2 8c1.38 0 2.08.8 2.08 2.41V14h-1.5v-3.5c0-.46-.1-.8-.27-1-.17-.2-.43-.31-.79-.31-.44 0-.8.14-1.06.42-.25.27-.38.63-.38 1.09V14h-1.5Zm9.91.12a3.7 3.7 0 0 1-1.71-.37c-.48-.25-.86-.6-1.12-1.06-.26-.45-.38-1-.38-1.62 0-.6.12-1.14.37-1.6.25-.45.6-.8 1.04-1.06.45-.27.96-.4 1.53-.4.83 0 1.48.27 1.96.8.5.52.74 1.24.74 2.15v.45h-4.2c.1 1.05.7 1.57 1.8 1.57a2.8 2.8 0 0 0 1.88-.62l.42 1c-.28.24-.63.42-1.06.56-.42.13-.84.2-1.27.2Zm-.21-5.09c-.44 0-.8.14-1.07.41-.27.27-.44.64-.5 1.1h2.96a1.75 1.75 0 0 0-.41-1.11c-.23-.27-.56-.4-.98-.4ZM25.83 14l-2.32-5.87h1.54l1.5 4.13 1.51-4.13h1.06l1.51 4.15 1.5-4.15h1.45L31.28 14h-1.31l-1.43-3.78-1.4 3.78h-1.31Z"/></g></symbol><symbol id="people"><g fill="none"><rect width="50" height="50" fill="#E5EEEB" rx="4"/><g fill="#45766A" clip-path="url(#a)"><path d="M19.03 31.93h3.65v.3h-3.65v-.3Zm16 0H43v.3h-7.96v-.3Zm-.19-11.05c.34.45.6.85.82 1.21a6.1 6.1 0 0 1 .46-2.25V23c.1.26.18.53.18.82a1.29 1.29 0 0 1-.18.67v5.9a.87.87 0 0 0 1.74 0v-6.35h.33v6.35a.87.87 0 1 0 1.73 0v-7.1a27.65 27.65 0 0 1-3.66-5.07c-.07.02-.13.04-.2.08-.38.19-.78.6-1.07 1.32-.12.3-.22.67-.3 1.1.06.04.11.1.15.16Zm-.33 2.46v.06h.03a5.22 5.22 0 0 0-.03-.06Z"/><path d="M37.44 19.7c.6.92 1.46 2.1 2.48 3.23v-3.08c.05.08.09.18.13.3.2.54.36 1.44.36 2.85 0 .39 0 .81-.04 1.28a.56.56 0 1 0 1.13.07c.02-.45.04-.9.04-1.35 0-2.12-.34-3.3-.8-4-.24-.35-.5-.58-.76-.7a1.34 1.34 0 0 0-.59-.15H36.5c.16.29.48.84.94 1.54ZM38.02 17.75a1.58 1.58 0 1 0 0-3.17 1.58 1.58 0 0 0 0 3.17ZM11.77 25.88v14.14a1.5 1.5 0 1 0 2.99 0V29.1h.56v10.92a1.5 1.5 0 1 0 2.99 0V21.88l.21.51c.34.95.63 2.5.63 4.92 0 .67-.02 1.4-.07 2.2a.97.97 0 0 0 1.93.12c.05-.84.08-1.61.08-2.32 0-3.65-.6-5.67-1.39-6.89-.4-.6-.86-.99-1.29-1.2a2.3 2.3 0 0 0-1-.26H16.81l-.3 2.32-1.18-1.42.81-.9h-2.21l.81.9-1.17 1.42-.3-2.32H12.6l-1.3.05h-.36c-.7.01-1.29-.09-1.57-.26a.72.72 0 0 1-.3-.3 1.54 1.54 0 0 1-.13-.73c0-.4.08-.97.3-1.72a.97.97 0 0 0-.64-1.2l-.01-.01v-2.52c.26-.43.93-1.18 2.11-.48 3.2 1.9 3.39-2.54 3.39-2.54s-1.67.93-2.88-.16c-1.03-.92-2.27-.4-2.62-.22v-.39h-.45v6.29a.97.97 0 0 0-.74.67c-.27.87-.4 1.62-.4 2.28 0 .61.12 1.17.37 1.64a2.8 2.8 0 0 0 1.67 1.35c.64.2 1.29.24 1.9.24h.1l.73-.02v4.95Z"/><path d="M15.48 18.23a2.72 2.72 0 1 0-.89-5.37 2.72 2.72 0 0 0 .9 5.37Zm13.74 5.89c-.12-1.22-.4-2-.73-2.51-.23-.36-.5-.58-.75-.7a1.33 1.33 0 0 0-.6-.15h-.49a10.66 10.66 0 0 1 .24 3.32v1.3h-2.23v-1.3c-.02-.3-.04-.6-.04-.9 0-.63.06-1.5.28-2.43h-.49c-.13 0-.35.03-.6.16-.37.18-.78.6-1.07 1.32a9.3 9.3 0 0 0-.48 3.38c0 .41.01.86.04 1.34a.56.56 0 0 0 .56.53h.04a.56.56 0 0 0 .53-.6c-.03-.42-.04-.84-.04-1.27 0-1.7.24-2.66.49-3.16V33a.87.87 0 1 0 1.73 0v-6.35h.33V33a.87.87 0 0 0 1.74 0V22.45l.12.3c.2.55.37 1.45.37 2.86 0 .39-.01.81-.04 1.28-.01.2.09.39.24.5.06-1.05.22-1.9.48-2.56.11-.29.24-.52.37-.71Z"/><path d="M24.83 23.19c0 .32.02.59.04.78h1.82c.01-.2.03-.46.03-.78 0-.64-.06-1.5-.29-2.44h-1.31c-.23.93-.29 1.8-.29 2.44ZM25.78 20.35a1.58 1.58 0 1 0 0-3.16 1.58 1.58 0 0 0 0 3.16ZM25.77 25.1a.4.4 0 1 0 0-.79.4.4 0 0 0 0 .8ZM31.29 20.63h2.16a1.58 1.58 0 1 0 .03 1.61h-2.2v-1.61Z"/><path d="M32.64 21.87a.43.43 0 1 0 0-.87.43.43 0 0 0 0 .87Z"/><path d="M36.06 23.82c0-.36-.13-.7-.35-1.15-.23-.44-.57-.97-1.06-1.65a.56.56 0 0 0-.91.66c.47.65.78 1.14.96 1.5.12.23.18.4.21.52-.16 0-.41-.05-.66-.11l-.4-.1-.33-.04h-2.78c-.12 0-.34.02-.6.14-.37.2-.78.6-1.06 1.33a9.31 9.31 0 0 0-.49 3.38c0 .4.02.86.04 1.34a.56.56 0 1 0 1.13-.06c-.03-.43-.04-.86-.04-1.28 0-1.7.24-2.66.49-3.16v10.54a.87.87 0 1 0 1.74 0v-6.34h.32v6.34a.87.87 0 0 0 1.74 0v-11l.2.05c.23.05.48.1.73.1.22 0 .47-.03.72-.2a.9.9 0 0 0 .3-.36c.07-.14.1-.3.1-.45Z"/></g></g></symbol><symbol id="pinterest"><g fill="none"><path fill="#fff" d="M10.05 26.72a13.33 13.33 0 1 0-.8-.27 14.48 14.48 0 0 1 0-3.94l1.54-6.59s-.39-.77-.39-2c0-1.84 1.15-3.21 2.45-3.21 1.15 0 1.68.84 1.68 1.92 0 1.14-.76 2.78-1.14 4.36-.23 1.3.69 2.45 2.02 2.45 2.38 0 4.22-2.53 4.22-6.1 0-3.2-2.3-5.4-5.59-5.4a5.72 5.72 0 0 0-5.97 5.75c0 1.15.37 2.31.98 3.07.12.08.12.19.08.39l-.38 1.45c0 .23-.15.3-.38.15-1.7-.75-2.69-3.18-2.69-5.14 0-4.21 2.99-8.04 8.75-8.04 4.58 0 8.16 3.3 8.16 7.67 0 4.59-2.84 8.27-6.91 8.27-1.3 0-2.56-.7-3.01-1.51l-.9 3.16a15.74 15.74 0 0 1-1.72 3.6v-.04Z"/></g></symbol><symbol id="price-tag"><g fill="none"><rect width="50" height="50" fill="#F3F1E1" rx="4"/><path fill="#F2BE22" d="m33.3 16.45-7.25-4.61V8.05a1.05 1.05 0 0 0-2.1 0v3.79l-7.25 4.6a1.06 1.06 0 0 0-.49.9v24.6c0 .59.47 1.06 1.06 1.06h15.46c.59 0 1.06-.47 1.06-1.05V17.34c0-.36-.19-.7-.49-.9ZM25 24.3a3.52 3.52 0 0 1-1.05-6.87v.89a1.05 1.05 0 1 0 2.1 0v-.9A3.52 3.52 0 0 1 25 24.3Z"/></g></symbol><symbol id="shield"><g fill="none"><rect width="50" height="50" fill="#E3E6EE" rx="4"/><path fill="#6276AA" d="M38.4 14.06a3.06 3.06 0 0 0-.35-.89S34.15 7 24 7 9.94 13.17 9.94 13.17c-.14.23-.3.63-.35.9 0 0-.75 4 .5 9.73 1.15 5.28 4.33 12.84 12.96 18.9a1.64 1.64 0 0 0 1.9 0c8.63-6.06 11.8-13.62 12.96-18.9 1.25-5.74.5-9.74.5-9.74Zm-3.82 9.02-.1.46H24v15.63c-6.74-5.1-9.42-11.2-10.47-15.63H24V10.41c7.23 0 10.45 3.63 11.08 4.46.11.77.44 3.92-.5 8.2Z"/></g></symbol><symbol id="skype"><g fill="none"><path fill="#fff" d="M24 8a11.24 11.24 0 0 1 3.15 10.07 6.67 6.67 0 0 1-9.08 9.08C14.52 27.8 10.72 26.76 8 24a11.24 11.24 0 0 1-3.15-10.07 6.67 6.67 0 0 1 9.08-9.08C17.48 4.2 21.28 5.24 24 8Zm-7.95 14.88c3.83 0 5.74-1.84 5.74-4.32 0-1.59-.75-3.28-3.64-3.93l-2.66-.59c-1.01-.23-2.16-.53-2.16-1.48 0-.96.8-1.63 2.27-1.63 2.97 0 2.7 2.04 4.17 2.04.78 0 1.44-.45 1.44-1.24 0-1.82-2.92-3.2-5.4-3.2-2.68 0-5.54 1.15-5.54 4.19 0 1.47.52 3.03 3.4 3.75l3.58.9c1.08.27 1.35.87 1.35 1.43 0 .9-.9 1.8-2.55 1.8-3.21 0-2.77-2.47-4.49-2.47-.77 0-1.33.54-1.33 1.3 0 1.48 1.77 3.45 5.82 3.45Z"/></g></symbol><symbol id="star"><g fill="none"><path fill="#F2BE22" d="m9 14.27 4.15 2.51a1 1 0 0 0 1.49-1.08l-1.1-4.72 3.67-3.18a1 1 0 0 0-.57-1.75l-4.83-.41-1.89-4.46a1 1 0 0 0-1.84 0L6.19 5.63l-4.83.41a1 1 0 0 0-.57 1.75l3.67 3.18-1.1 4.72a1 1 0 0 0 1.49 1.08L9 14.27Z"/></g></symbol><symbol id="telegram"><g fill="none"><path fill="#fff" d="M16 2.67a13.34 13.34 0 1 0 .01 26.67A13.34 13.34 0 0 0 16 2.67Zm6.19 9.06c-.2 2.11-1.07 7.23-1.51 9.59-.19 1-.56 1.33-.9 1.37-.78.07-1.37-.5-2.11-1-1.18-.77-1.84-1.25-2.98-2-1.32-.86-.46-1.34.3-2.12.2-.2 3.61-3.3 3.68-3.58a.27.27 0 0 0-.07-.24c-.08-.07-.19-.04-.28-.03-.12.03-1.99 1.27-5.63 3.72-.53.36-1.01.55-1.44.53a9.3 9.3 0 0 1-2.06-.49c-.84-.27-1.5-.41-1.44-.88.02-.24.36-.48.98-.73 3.9-1.7 6.48-2.82 7.78-3.35 3.7-1.55 4.46-1.81 4.97-1.81.1 0 .36.02.52.16.13.1.17.25.19.36-.02.08.01.32 0 .5Z"/></g></symbol><symbol id="vk"><g fill="none"><path fill="#fff" d="M13.36 0a13.36 13.36 0 1 0 0 26.72 13.36 13.36 0 0 0 0-26.72Zm5.14 15.07s1.18 1.17 1.47 1.71l.02.03c.11.2.14.35.08.47-.1.19-.43.28-.54.3h-2.09c-.14 0-.45-.05-.82-.3-.28-.2-.56-.52-.83-.84-.4-.47-.75-.87-1.1-.87-.05 0-.1 0-.14.02-.27.08-.6.47-.6 1.48 0 .32-.26.5-.44.5h-.95c-.33 0-2.02-.11-3.53-1.7-1.84-1.94-3.5-5.83-3.5-5.87-.11-.25.1-.39.34-.39h2.1c.29 0 .38.17.45.33.07.17.35.88.8 1.67.73 1.28 1.18 1.8 1.54 1.8.07 0 .14-.01.2-.04.47-.26.38-1.94.36-2.29 0-.06 0-.75-.25-1.08a1.03 1.03 0 0 0-.64-.36c.07-.1.17-.18.28-.23.32-.17.9-.19 1.48-.19h.32c.63 0 .79.05 1.02.1.45.12.46.41.42 1.43l-.02 1V12c-.02.52-.04 1.1.33 1.35.05.03.1.04.16.04.12 0 .5 0 1.54-1.77.32-.57.6-1.16.83-1.77.02-.04.08-.15.15-.2a.37.37 0 0 1 .17-.03h2.48c.27 0 .46.04.5.14.05.17-.02.67-1.15 2.2l-.5.67c-1.03 1.34-1.03 1.41.06 2.43Z"/></g></symbol></svg>