<svg width="24" height="26" viewBox="0 0 24 26" fill="none" xmlns="http://www.w3.org/2000/svg">
<path fill-rule="evenodd" clip-rule="evenodd" d="M2.5 6.5C2.5 6.10218 2.65804 5.72064 2.93934 5.43934C3.22064 5.15804 3.60218 5 4 5H22C22.3978 5 22.7794 5.15804 23.0607 5.43934C23.342 5.72064 23.5 6.10218 23.5 6.5C23.5 6.89782 23.342 7.27936 23.0607 7.56066C22.7794 7.84196 22.3978 8 22 8H4C3.60218 8 3.22064 7.84196 2.93934 7.56066C2.65804 7.27936 2.5 6.89782 2.5 6.5ZM2.5 14C2.5 13.6022 2.65804 13.2206 2.93934 12.9393C3.22064 12.658 3.60218 12.5 4 12.5H22C22.3978 12.5 22.7794 12.658 23.0607 12.9393C23.342 13.2206 23.5 13.6022 23.5 14C23.5 14.3978 23.342 14.7794 23.0607 15.0607C22.7794 15.342 22.3978 15.5 22 15.5H4C3.60218 15.5 3.22064 15.342 2.93934 15.0607C2.65804 14.7794 2.5 14.3978 2.5 14ZM11.5 21.5C11.5 21.1022 11.658 20.7206 11.9393 20.4393C12.2206 20.158 12.6022 20 13 20H22C22.3978 20 22.7794 20.158 23.0607 20.4393C23.342 20.7206 23.5 21.1022 23.5 21.5C23.5 21.8978 23.342 22.2794 23.0607 22.5607C22.7794 22.842 22.3978 23 22 23H13C12.6022 23 12.2206 22.842 11.9393 22.5607C11.658 22.2794 11.5 21.8978 11.5 21.5Z" fill="white"/>
</svg>
