<svg xmlns="http://www.w3.org/2000/svg" width="44" height="20" fill="none"><rect width="44" height="20" fill="#fff" rx="4"/><path fill="#1A3E3E" d="M10.78 14V8.13h1.46v.91a2 2 0 0 1 .8-.76A2.5 2.5 0 0 1 14.2 8c1.38 0 2.08.8 2.08 2.41V14h-1.5v-3.5c0-.46-.1-.8-.27-1-.17-.2-.43-.31-.79-.31-.44 0-.8.14-1.06.42-.25.27-.38.63-.38 1.09V14h-1.5Zm9.91.12a3.7 3.7 0 0 1-1.71-.37c-.48-.25-.86-.6-1.12-1.06-.26-.45-.38-1-.38-1.62 0-.6.12-1.14.37-1.6.25-.45.6-.8 1.04-1.06.45-.27.96-.4 1.53-.4.83 0 1.48.27 1.96.8.5.52.74 1.24.74 2.15v.45h-4.2c.1 1.05.7 1.57 1.8 1.57a2.8 2.8 0 0 0 1.88-.62l.42 1c-.28.24-.63.42-1.06.56-.42.13-.84.2-1.27.2Zm-.21-5.09c-.44 0-.8.14-1.07.41-.27.27-.44.64-.5 1.1h2.96a1.75 1.75 0 0 0-.41-1.11c-.23-.27-.56-.4-.98-.4ZM25.83 14l-2.32-5.87h1.54l1.5 4.13 1.51-4.13h1.06l1.51 4.15 1.5-4.15h1.45L31.28 14h-1.31l-1.43-3.78-1.4 3.78h-1.31Z"/></svg>