<svg xmlns="http://www.w3.org/2000/svg" width="50" height="50" fill="none"><rect width="50" height="50" fill="#E5EEEB" rx="4"/><g fill="#45766A" clip-path="url(#a)"><path d="M19.03 31.93h3.65v.3h-3.65v-.3Zm16 0H43v.3h-7.96v-.3Zm-.19-11.05c.34.45.6.85.82 1.21a6.1 6.1 0 0 1 .46-2.25V23c.1.26.18.53.18.82a1.29 1.29 0 0 1-.18.67v5.9a.87.87 0 0 0 1.74 0v-6.35h.33v6.35a.87.87 0 1 0 1.73 0v-7.1a27.65 27.65 0 0 1-3.66-5.07c-.07.02-.13.04-.2.08-.38.19-.78.6-1.07 1.32-.12.3-.22.67-.3 1.1.06.04.11.1.15.16Zm-.33 2.46v.06h.03a5.22 5.22 0 0 0-.03-.06Z"/><path d="M37.44 19.7c.6.92 1.46 2.1 2.48 3.23v-3.08c.05.08.09.18.13.3.2.54.36 1.44.36 2.85 0 .39 0 .81-.04 1.28a.56.56 0 1 0 1.13.07c.02-.45.04-.9.04-1.35 0-2.12-.34-3.3-.8-4-.24-.35-.5-.58-.76-.7a1.34 1.34 0 0 0-.59-.15H36.5c.16.29.48.84.94 1.54ZM38.02 17.75a1.58 1.58 0 1 0 0-3.17 1.58 1.58 0 0 0 0 3.17ZM11.77 25.88v14.14a1.5 1.5 0 1 0 2.99 0V29.1h.56v10.92a1.5 1.5 0 1 0 2.99 0V21.88l.21.51c.34.95.63 2.5.63 4.92 0 .67-.02 1.4-.07 2.2a.97.97 0 0 0 1.93.12c.05-.84.08-1.61.08-2.32 0-3.65-.6-5.67-1.39-6.89-.4-.6-.86-.99-1.29-1.2a2.3 2.3 0 0 0-1-.26H16.81l-.3 2.32-1.18-1.42.81-.9h-2.21l.81.9-1.17 1.42-.3-2.32H12.6l-1.3.05h-.36c-.7.01-1.29-.09-1.57-.26a.72.72 0 0 1-.3-.3 1.54 1.54 0 0 1-.13-.73c0-.4.08-.97.3-1.72a.97.97 0 0 0-.64-1.2l-.01-.01v-2.52c.26-.43.93-1.18 2.11-.48 3.2 1.9 3.39-2.54 3.39-2.54s-1.67.93-2.88-.16c-1.03-.92-2.27-.4-2.62-.22v-.39h-.45v6.29a.97.97 0 0 0-.74.67c-.27.87-.4 1.62-.4 2.28 0 .61.12 1.17.37 1.64a2.8 2.8 0 0 0 1.67 1.35c.64.2 1.29.24 1.9.24h.1l.73-.02v4.95Z"/><path d="M15.48 18.23a2.72 2.72 0 1 0-.89-5.37 2.72 2.72 0 0 0 .9 5.37Zm13.74 5.89c-.12-1.22-.4-2-.73-2.51-.23-.36-.5-.58-.75-.7a1.33 1.33 0 0 0-.6-.15h-.49a10.66 10.66 0 0 1 .24 3.32v1.3h-2.23v-1.3c-.02-.3-.04-.6-.04-.9 0-.63.06-1.5.28-2.43h-.49c-.13 0-.35.03-.6.16-.37.18-.78.6-1.07 1.32a9.3 9.3 0 0 0-.48 3.38c0 .41.01.86.04 1.34a.56.56 0 0 0 .56.53h.04a.56.56 0 0 0 .53-.6c-.03-.42-.04-.84-.04-1.27 0-1.7.24-2.66.49-3.16V33a.87.87 0 1 0 1.73 0v-6.35h.33V33a.87.87 0 0 0 1.74 0V22.45l.12.3c.2.55.37 1.45.37 2.86 0 .39-.01.81-.04 1.28-.01.2.09.39.24.5.06-1.05.22-1.9.48-2.56.11-.29.24-.52.37-.71Z"/><path d="M24.83 23.19c0 .32.02.59.04.78h1.82c.01-.2.03-.46.03-.78 0-.64-.06-1.5-.29-2.44h-1.31c-.23.93-.29 1.8-.29 2.44ZM25.78 20.35a1.58 1.58 0 1 0 0-3.16 1.58 1.58 0 0 0 0 3.16ZM25.77 25.1a.4.4 0 1 0 0-.79.4.4 0 0 0 0 .8ZM31.29 20.63h2.16a1.58 1.58 0 1 0 .03 1.61h-2.2v-1.61Z"/><path d="M32.64 21.87a.43.43 0 1 0 0-.87.43.43 0 0 0 0 .87Z"/><path d="M36.06 23.82c0-.36-.13-.7-.35-1.15-.23-.44-.57-.97-1.06-1.65a.56.56 0 0 0-.91.66c.47.65.78 1.14.96 1.5.12.23.18.4.21.52-.16 0-.41-.05-.66-.11l-.4-.1-.33-.04h-2.78c-.12 0-.34.02-.6.14-.37.2-.78.6-1.06 1.33a9.31 9.31 0 0 0-.49 3.38c0 .4.02.86.04 1.34a.56.56 0 1 0 1.13-.06c-.03-.43-.04-.86-.04-1.28 0-1.7.24-2.66.49-3.16v10.54a.87.87 0 1 0 1.74 0v-6.34h.32v6.34a.87.87 0 0 0 1.74 0v-11l.2.05c.23.05.48.1.73.1.22 0 .47-.03.72-.2a.9.9 0 0 0 .3-.36c.07-.14.1-.3.1-.45Z"/></g><defs><clipPath id="a"><path fill="#fff" d="M7 7h36v36H7z"/></clipPath></defs></svg>