<svg xmlns="http://www.w3.org/2000/svg" width="28" height="28" fill="none"><path fill="#fff" d="M10.05 26.72a13.33 13.33 0 1 0-.8-.27 14.48 14.48 0 0 1 0-3.94l1.54-6.59s-.39-.77-.39-2c0-1.84 1.15-3.21 2.45-3.21 1.15 0 1.68.84 1.68 1.92 0 1.14-.76 2.78-1.14 4.36-.23 1.3.69 2.45 2.02 2.45 2.38 0 4.22-2.53 4.22-6.1 0-3.2-2.3-5.4-5.59-5.4a5.72 5.72 0 0 0-5.97 5.75c0 1.15.37 2.31.98 3.07.12.08.12.19.08.39l-.38 1.45c0 .23-.15.3-.38.15-1.7-.75-2.69-3.18-2.69-5.14 0-4.21 2.99-8.04 8.75-8.04 4.58 0 8.16 3.3 8.16 7.67 0 4.59-2.84 8.27-6.91 8.27-1.3 0-2.56-.7-3.01-1.51l-.9 3.16a15.74 15.74 0 0 1-1.72 3.6v-.04Z"/></svg>