<svg xmlns="http://www.w3.org/2000/svg" width="32" height="32" fill="none"><path fill="#fff" d="M24 8a11.24 11.24 0 0 1 3.15 10.07 6.67 6.67 0 0 1-9.08 9.08C14.52 27.8 10.72 26.76 8 24a11.24 11.24 0 0 1-3.15-10.07 6.67 6.67 0 0 1 9.08-9.08C17.48 4.2 21.28 5.24 24 8Zm-7.95 14.88c3.83 0 5.74-1.84 5.74-4.32 0-1.59-.75-3.28-3.64-3.93l-2.66-.59c-1.01-.23-2.16-.53-2.16-1.48 0-.96.8-1.63 2.27-1.63 2.97 0 2.7 2.04 4.17 2.04.78 0 1.44-.45 1.44-1.24 0-1.82-2.92-3.2-5.4-3.2-2.68 0-5.54 1.15-5.54 4.19 0 1.47.52 3.03 3.4 3.75l3.58.9c1.08.27 1.35.87 1.35 1.43 0 .9-.9 1.8-2.55 1.8-3.21 0-2.77-2.47-4.49-2.47-.77 0-1.33.54-1.33 1.3 0 1.48 1.77 3.45 5.82 3.45Z"/></svg>