<svg xmlns="http://www.w3.org/2000/svg" width="27" height="27" fill="none"><path fill="#fff" d="M13.36 0a13.36 13.36 0 1 0 0 26.72 13.36 13.36 0 0 0 0-26.72Zm5.14 15.07s1.18 1.17 1.47 1.71l.02.03c.11.2.14.35.08.47-.1.19-.43.28-.54.3h-2.09c-.14 0-.45-.05-.82-.3-.28-.2-.56-.52-.83-.84-.4-.47-.75-.87-1.1-.87-.05 0-.1 0-.14.02-.27.08-.6.47-.6 1.48 0 .32-.26.5-.44.5h-.95c-.33 0-2.02-.11-3.53-1.7-1.84-1.94-3.5-5.83-3.5-5.87-.11-.25.1-.39.34-.39h2.1c.29 0 .38.17.45.33.07.17.35.88.8 1.67.73 1.28 1.18 1.8 1.54 1.8.07 0 .14-.01.2-.04.47-.26.38-1.94.36-2.29 0-.06 0-.75-.25-1.08a1.03 1.03 0 0 0-.64-.36c.07-.1.17-.18.28-.23.32-.17.9-.19 1.48-.19h.32c.63 0 .79.05 1.02.1.45.12.46.41.42 1.43l-.02 1V12c-.02.52-.04 1.1.33 1.35.05.03.1.04.16.04.12 0 .5 0 1.54-1.77.32-.57.6-1.16.83-1.77.02-.04.08-.15.15-.2a.37.37 0 0 1 .17-.03h2.48c.27 0 .46.04.5.14.05.17-.02.67-1.15 2.2l-.5.67c-1.03 1.34-1.03 1.41.06 2.43Z"/></svg>